<?xml version="1.0" encoding="UTF-8"?>
<svg version="1.1" xmlns="http://www.w3.org/2000/svg" width="512" height="512">
<path d="M0 0 C1.66666667 1.66666667 3.33333333 3.33333333 5 5 C6.23970578 5.91002578 7.49072097 6.80475787 8.75 7.6875 C21.55801832 17.19721285 29.27085015 31.01655493 34 46 C34.66525107 48.00047131 35.33158991 50.00058199 36 52 C36.63389648 51.82871582 37.26779297 51.65743164 37.92089844 51.48095703 C60.00258649 45.54144014 60.00258649 45.54144014 69.0859375 44.32421875 C71.00360426 44.18942331 71.00360426 44.18942331 72 43 C79.12622286 41.77342588 86.22326805 41.8513597 93.4375 41.875 C94.61376953 41.87113281 95.79003906 41.86726563 97.00195312 41.86328125 C103.42004909 41.87045632 109.6384786 42.14272546 116 43 C116 43.66 116 44.32 116 45 C117.10214844 44.95101562 118.20429688 44.90203125 119.33984375 44.8515625 C124.61902368 44.85388659 129.47034045 46.08106081 134.5625 47.375 C135.9227832 47.70757812 135.9227832 47.70757812 137.31054688 48.046875 C142.23911279 49.26203991 147.12951816 50.57025636 152 52 C152.45439453 50.54980469 152.45439453 50.54980469 152.91796875 49.0703125 C158.51457282 31.52328609 166.56124279 17.9015954 181 6 C181.68320312 5.39671875 182.36640625 4.7934375 183.0703125 4.171875 C200.08771865 -10.19262753 222.07845009 -15.0117004 243.875 -13.78125 C269.71932113 -10.93399428 289.80175025 1.16978899 306.34423828 21.05322266 C320.46038695 38.96801566 324.71513023 62.38290724 322.3125 84.625 C320.4342076 99.67250302 315.06511565 115.32006242 304 126 C302.96854629 127.30915279 301.96457834 128.64082143 301 130 C298.56521736 133.33047987 296.00158429 136.17497949 293 139 C294.6161812 142.9236769 297.31355673 145.71360808 300.1875 148.75 C301.1841742 149.82107474 302.18026795 150.89268992 303.17578125 151.96484375 C303.65998535 152.4841748 304.14418945 153.00350586 304.64306641 153.53857422 C311.26357708 160.66890472 316.93647054 167.8062954 321.5625 176.37890625 C322.61574572 178.29936245 323.70426352 180.20058716 324.8125 182.08984375 C334.91785866 199.32026975 341.8134886 216.66240152 347 236 C347.21060059 236.77859375 347.42120117 237.5571875 347.63818359 238.359375 C350.41108287 249.23629601 350.29754662 260.40701254 350.375 271.5625 C350.38321777 272.29749725 350.39143555 273.03249451 350.39990234 273.7897644 C350.69060105 308.97265595 337.22412628 343.29413376 312.51513672 368.49414062 C308.27478003 372.70853316 303.86988921 376.74144996 299.41601562 380.72802734 C298.23051746 381.79293173 297.05883617 382.87319089 295.890625 383.95703125 C271.38626659 406.31464032 238.85805862 418.52458115 207.64599609 428.14306641 C205.41459865 428.86572788 203.26270863 429.66481906 201.08984375 430.54296875 C195.49238629 432.69528421 189.60470578 433.77502028 183.75 435 C182.50653809 435.26200195 181.26307617 435.52400391 179.98193359 435.79394531 C149.10804072 442.18768767 117.51950841 444.69192442 86 444 C85.14599609 443.98211426 84.29199219 443.96422852 83.41210938 443.94580078 C47.59903297 443.08139073 9.83807996 439.47084539 -23.90722656 426.76123047 C-26.32795505 425.88070884 -28.76622323 425.06544605 -31.2109375 424.25390625 C-44.9108878 419.68177398 -58.01137059 414.31511609 -71 408 C-71.70592285 407.66000977 -72.4118457 407.32001953 -73.13916016 406.96972656 C-80.98123628 403.14858138 -88.22047306 398.66644688 -95.375 393.6875 C-96.49225464 392.9133374 -96.49225464 392.9133374 -97.63208008 392.12353516 C-98.31810303 391.63288574 -99.00412598 391.14223633 -99.7109375 390.63671875 C-100.62818604 389.98255981 -100.62818604 389.98255981 -101.56396484 389.31518555 C-103 388 -103 388 -104 385 C-105.31909517 384.30558646 -106.65553716 383.64392694 -108 383 C-109.57907403 381.68964559 -111.11750165 380.32960352 -112.625 378.9375 C-115.21549456 376.54802478 -117.79565823 374.17258379 -120.48828125 371.8984375 C-131.88786773 362.18969877 -140.20156288 350.25315336 -147 337 C-147.4638208 336.10112061 -147.4638208 336.10112061 -147.93701172 335.18408203 C-162.96246471 305.64371156 -167.1174713 269.26711738 -159 237 C-158.66137939 235.59476074 -158.66137939 235.59476074 -158.31591797 234.16113281 C-151.74208069 207.3317389 -140.01646097 178.62655035 -121 158 C-120.34 158 -119.68 158 -119 158 C-118.72816895 157.40525879 -118.45633789 156.81051758 -118.17626953 156.19775391 C-117.02549206 154.04762962 -115.86344251 152.58362559 -114.1796875 150.8359375 C-113.37724609 149.98902344 -113.37724609 149.98902344 -112.55859375 149.125 C-111.42853937 147.95037271 -110.29832894 146.77589551 -109.16796875 145.6015625 C-106.06383523 142.78569847 -106.06383523 142.78569847 -105 139 C-106.29386617 137.5772918 -106.29386617 137.5772918 -108 136.0625 C-111.9108909 132.27853456 -114.98071419 128.09055295 -118.10546875 123.6484375 C-119.9502585 120.99164762 -119.9502585 120.99164762 -122.015625 118.62890625 C-133.94287084 102.8276534 -136.30174763 80.21859558 -134.4375 61.0625 C-131.0282447 37.97566378 -119.48930464 18.32921109 -101 4 C-100.2059375 3.34644531 -99.411875 2.69289063 -98.59375 2.01953125 C-71.0733581 -19.55159946 -28.76001333 -18.81255352 0 0 Z " fill="#77B255" transform="translate(162,41)"/>
<path d="M0 0 C0.87520294 0.00115814 1.75040588 0.00231628 2.65213013 0.00350952 C24.875336 0.06103769 47.03903708 1.67013635 68.89160156 5.86914062 C71.57679472 6.3739347 74.26789458 6.83581616 76.9609375 7.296875 C102.75812081 11.79235202 128.21695139 18.01667088 153.625 24.3125 C154.80118896 24.60302246 155.97737793 24.89354492 157.18920898 25.19287109 C158.24825439 25.45922363 159.3072998 25.72557617 160.3984375 26 C161.31802246 26.23074219 162.23760742 26.46148437 163.18505859 26.69921875 C165.25 27.3125 165.25 27.3125 166.25 28.3125 C168.42932506 28.7700037 170.61953278 29.17563809 172.8125 29.5625 C177.83229143 30.44925889 182.80989798 31.42118317 187.7734375 32.5859375 C202.32460695 35.94539722 216.32299188 37.21539829 231.25 37.3125 C231.25 36.6525 231.25 35.9925 231.25 35.3125 C231.8790625 35.16554688 232.508125 35.01859375 233.15625 34.8671875 C243.00323185 32.2868037 249.12976606 27.51431047 254.75 19.0546875 C256.39380866 16.04959979 257.16867731 13.331565 257.9375 10 C258.18886719 8.93136719 258.44023437 7.86273438 258.69921875 6.76171875 C258.88097656 5.95347656 259.06273437 5.14523437 259.25 4.3125 C259.58 4.3125 259.91 4.3125 260.25 4.3125 C259.58732548 35.0365004 242.23106722 64.97250451 220.62158203 85.88867188 C217.35181184 88.99405083 214.02593279 92.03312951 210.66601562 95.04052734 C209.48051746 96.10543173 208.30883617 97.18569089 207.140625 98.26953125 C182.63626659 120.62714032 150.10805862 132.83708115 118.89599609 142.45556641 C116.66459865 143.17822788 114.51270863 143.97731906 112.33984375 144.85546875 C106.74238629 147.00778421 100.85470578 148.08752028 95 149.3125 C93.75653809 149.57450195 92.51307617 149.83650391 91.23193359 150.10644531 C60.35804072 156.50018767 28.76950841 159.00442442 -2.75 158.3125 C-3.60400391 158.29461426 -4.45800781 158.27672852 -5.33789062 158.25830078 C-41.15096703 157.39389073 -78.91192004 153.78334539 -112.65722656 141.07373047 C-115.07795505 140.19320884 -117.51622323 139.37794605 -119.9609375 138.56640625 C-133.6608878 133.99427398 -146.76137059 128.62761609 -159.75 122.3125 C-160.45592285 121.97250977 -161.1618457 121.63251953 -161.88916016 121.28222656 C-169.73123628 117.46108138 -176.97047306 112.97894688 -184.125 108 C-184.86983643 107.4838916 -185.61467285 106.9677832 -186.38208008 106.43603516 C-187.4111145 105.70006104 -187.4111145 105.70006104 -188.4609375 104.94921875 C-189.07243652 104.51311279 -189.68393555 104.07700684 -190.31396484 103.62768555 C-191.75 102.3125 -191.75 102.3125 -192.75 99.3125 C-194.06909517 98.61808646 -195.40553716 97.95642694 -196.75 97.3125 C-198.32907403 96.00214559 -199.86750165 94.64210352 -201.375 93.25 C-203.96549456 90.86052478 -206.54565823 88.48508379 -209.23828125 86.2109375 C-220.63786773 76.50219877 -228.95156288 64.56565336 -235.75 51.3125 C-236.05921387 50.71324707 -236.36842773 50.11399414 -236.68701172 49.49658203 C-243.72082024 35.66796006 -248.13169344 21.77095075 -249.75 6.3125 C-247.45557004 8.60692996 -247.25615472 9.77767395 -246.5 12.875 C-244.40991538 20.1691842 -240.44114402 27.38508938 -233.75 31.3125 C-229.79386677 32.80058681 -225.79801606 34.0987408 -221.75 35.3125 C-221.75 35.9725 -221.75 36.6325 -221.75 37.3125 C-198.92149362 37.39542921 -198.92149362 37.39542921 -176.74829102 32.94262695 C-171.41528482 31.14423869 -166.00570378 29.8265276 -160.53125 28.53515625 C-159.47450073 28.28253525 -158.41775146 28.02991425 -157.32897949 27.76963806 C-153.9702018 26.96767003 -150.61013337 26.17126649 -147.25 25.375 C-145.02595532 24.84476311 -142.80199622 24.31416709 -140.578125 23.78320312 C-129.86740736 21.228374 -119.15381156 18.68504598 -108.43237305 16.17553711 C-106.10467149 15.62999411 -103.77788101 15.08053587 -101.45239258 14.52563477 C-92.32773861 12.37046628 -83.1428697 10.58161328 -73.9375 8.8125 C-72.39774728 8.51452527 -70.85803358 8.2163489 -69.31835938 7.91796875 C-66.26579056 7.32678526 -63.21214933 6.74161772 -60.15771484 6.16015625 C-57.35164555 5.62489492 -54.5506964 5.07073618 -51.75244141 4.49609375 C-34.59683372 1.06712609 -17.47308901 -0.072678 0 0 Z " fill="#C5E4B2" transform="translate(250.75,326.6875)"/>
<path d="M0 0 C2.46721468 1.93542501 4.81715676 3.94900997 7.1640625 6.02734375 C8.01355469 6.68605469 8.86304688 7.34476563 9.73828125 8.0234375 C12.00620138 9.89693674 13.70891609 11.68875212 15.4765625 14.02734375 C15.98832031 14.68734375 16.50007813 15.34734375 17.02734375 16.02734375 C18.1640625 18.02734375 18.1640625 18.02734375 18.1640625 22.02734375 C18.8240625 22.02734375 19.4840625 22.02734375 20.1640625 22.02734375 C25.83014648 37.25494444 25.46274631 50.39587575 18.9765625 65.21484375 C18.38052719 66.48951101 17.77956844 67.76196351 17.1640625 69.02734375 C16.5040625 69.02734375 15.8440625 69.02734375 15.1640625 69.02734375 C14.885625 69.61902344 14.6071875 70.21070313 14.3203125 70.8203125 C8.90621094 81.15466177 -2.34791019 87.74249157 -12.8359375 92.02734375 C-16.0859375 92.83984375 -16.0859375 92.83984375 -19.8359375 93.02734375 C-20.85429688 93.08921875 -21.87265625 93.15109375 -22.921875 93.21484375 C-31.59814944 93.52129053 -38.72075302 92.04694728 -46.8359375 89.02734375 C-46.8359375 88.36734375 -46.8359375 87.70734375 -46.8359375 87.02734375 C-47.56425781 86.92808594 -48.29257813 86.82882813 -49.04296875 86.7265625 C-59.50055136 84.10851035 -66.57230129 72.75255891 -71.8359375 64.02734375 C-77.76440248 53.82060508 -77.402165 39.87607931 -75.140625 28.54296875 C-73.08492478 22.42769245 -69.69218137 17.1622899 -65.8359375 12.02734375 C-64.6603125 10.44953125 -64.6603125 10.44953125 -63.4609375 8.83984375 C-47.43113834 -8.33494106 -19.9675798 -13.88929449 0 0 Z " fill="#FBFCFB" transform="translate(132.8359375,63.97265625)"/>
<path d="M0 0 C12.0957289 8.51673789 22.80556993 19.06457805 26 34 C26.24209555 37.22610661 26.23104427 40.45317828 26.25 43.6875 C26.270625 44.54794922 26.29125 45.40839844 26.3125 46.29492188 C26.3911851 59.34681284 20.05757773 71.72150574 11 81 C3.83333333 87 3.83333333 87 1 87 C1 87.66 1 88.32 1 89 C-1.22763988 89.81690177 -3.4569486 90.62861872 -5.6875 91.4375 C-6.31333984 91.66759766 -6.93917969 91.89769531 -7.58398438 92.13476562 C-20.02033335 96.62747808 -31.76433827 95.96921016 -44 91 C-52.9772086 86.67307785 -60.77329889 79.43016308 -66 71 C-66 70.34 -66 69.68 -66 69 C-66.66 69 -67.32 69 -68 69 C-68.45375 67.80375 -68.9075 66.6075 -69.375 65.375 C-69.63023437 64.70210938 -69.88546875 64.02921875 -70.1484375 63.3359375 C-70.42945313 62.56507812 -70.71046875 61.79421875 -71 61 C-71.53753906 59.70255859 -71.53753906 59.70255859 -72.0859375 58.37890625 C-73.34158006 53.73732156 -73.29024431 49.34821931 -73.25 44.5625 C-73.25773437 43.64662109 -73.26546875 42.73074219 -73.2734375 41.78710938 C-73.25811697 36.4517353 -72.74423771 32.043971 -71 27 C-70.67 26.01 -70.34 25.02 -70 24 C-69.34 24 -68.68 24 -68 24 C-67.90589844 23.27425781 -67.81179688 22.54851562 -67.71484375 21.80078125 C-65.28358831 12.27504274 -54.87663274 4.55774523 -46.83203125 -0.3125 C-33.07991278 -7.54765711 -13.41989629 -8.12902334 0 0 Z " fill="#FCFDFB" transform="translate(429,62)"/>
<path d="M0 0 C4.18845924 1.96730661 6.90839965 4.3470939 9.4375 8.28125 C10.015 9.168125 10.5925 10.055 11.1875 10.96875 C13.26182085 16.46570024 13.46329918 21.43994909 11.453125 27.0078125 C8.62047698 32.93539077 5.96236475 37.33221116 -0.1875 40.03125 C-5.84274707 41.91982973 -11.40681828 42.48129798 -17.05859375 40.33203125 C-23.40683257 37.02761137 -27.27292081 33.14998758 -29.5625 26.28125 C-30.17121592 20.22948127 -30.50534457 14.39322185 -28 8.78125 C-19.64671334 0.2137765 -12.41292265 -3.48167343 0 0 Z " fill="#2C3236" transform="translate(115.5625,86.71875)"/>
<path d="M0 0 C4.8722288 2.89030522 8.76744864 7.05234592 10.5625 12.4375 C11.50414111 26.00075364 11.50414111 26.00075364 7.5625 31.4375 C2.92520913 36.55041044 -0.79165293 39.95553287 -7.734375 40.67578125 C-13.82510885 40.86005504 -18.52476151 40.23274862 -23.4375 36.4375 C-29.16913085 30.22186477 -32.00864634 24.81859767 -31.8046875 16.3203125 C-30.95771368 9.67066695 -27.64064707 4.97619143 -22.4375 0.875 C-15.68012753 -3.17491104 -7.16843074 -3.14477134 0 0 Z " fill="#2C3236" transform="translate(415.4375,87.5625)"/>
<path d="M0 0 C4.30742759 2.23654894 7.64038378 4.73453991 10 9 C10.72202475 13.41312324 11.03230537 17.81678397 9.08203125 21.94140625 C6.36346151 25.45179242 3.12397234 27.51536996 -1 29 C-5.3212987 29.54016234 -7.39619532 29.3251256 -11.25 27.25 C-15.27459781 23.95714725 -17.43956666 21.22886027 -18.34375 16.01953125 C-18.69925755 10.99798707 -18.00102751 8.3715953 -14.6875 4.5 C-10.44260742 0.01483048 -6.08309456 -0.83108692 0 0 Z " fill="#5D923C" transform="translate(317,270)"/>
<path d="M0 0 C3.91312735 2.32871609 6.4910605 5.23659075 9 9 C9.72380724 13.88990708 9.52637966 17.90674993 7.375 22.375 C3.80022651 26.32606544 0.96045806 28.67325699 -4.375 29.5625 C-10.0878664 28.67602073 -14.12163623 26.05446037 -18 21.8125 C-19.55349524 17.44329464 -19.98793939 13.55972027 -19 9 C-14.42519981 1.53392609 -8.73249935 -1.56402973 0 0 Z " fill="#5D923C" transform="translate(204,270)"/>
<path d="M0 0 C0.33 0.99 0.66 1.98 1 3 C-0.07421875 4.98046875 -0.07421875 4.98046875 -1.6875 7.1875 C-4.59049627 11.31530355 -6.84492332 15.44118396 -9 20 C-9.66 20 -10.32 20 -11 20 C-9.56952311 14.89115395 -7.28610306 10.98255739 -4.375 6.625 C-3.95476563 5.98433594 -3.53453125 5.34367188 -3.1015625 4.68359375 C-2.07370232 3.11844302 -1.03768114 1.55865686 0 0 Z " fill="#94C378" transform="translate(32,212)"/>
<path d="M0 0 C0.66 0.33 1.32 0.66 2 1 C-2.62 5.62 -7.24 10.24 -12 15 C-12 10.39852874 -9.10228152 8.19311408 -6 5 C-4.05341967 3.24193983 -2.06456557 1.62215867 0 0 Z " fill="#DBEAD2" transform="translate(78,65)"/>
<path d="M0 0 C3.39187279 1.41573821 5.09697541 3.04230966 7.25 6 C8.03117187 7.051875 8.03117187 7.051875 8.828125 8.125 C10 10 10 10 10 12 C6.60812721 10.58426179 4.90302459 8.95769034 2.75 6 C2.22921875 5.29875 1.7084375 4.5975 1.171875 3.875 C0 2 0 2 0 0 Z " fill="#9ECC85" transform="translate(468,198)"/>
<path d="M0 0 C0.66 0.33 1.32 0.66 2 1 C-0.64 3.64 -3.28 6.28 -6 9 C-6.33 8.34 -6.66 7.68 -7 7 C-4.78071806 4.09197539 -3.07030857 2.04687238 0 0 Z " fill="#4F5457" transform="translate(394,88)"/>
<path d="M0 0 C0.6875 1.625 0.6875 1.625 1 4 C-0.4375 7.25 -0.4375 7.25 -2 10 C-2.66 10 -3.32 10 -4 10 C-3.52449439 8.51965236 -3.04448784 7.04074979 -2.5625 5.5625 C-2.29566406 4.73878906 -2.02882813 3.91507813 -1.75390625 3.06640625 C-1 1 -1 1 0 0 Z " fill="#90C375" transform="translate(20,232)"/>
</svg>
